<svg width="230" height="322" viewBox="0 0 230 322" fill="none" xmlns="http://www.w3.org/2000/svg">
<path d="M197.39 163.822C192.641 166.751 187.267 165.886 185.193 162.54C183.119 159.193 184.745 154.01 189.493 151.08C194.242 148.151 199.616 149.016 201.69 152.362C203.764 155.709 202.138 160.892 197.39 163.822Z" fill="#EC9D27" stroke="black" stroke-width="2"/>
<path d="M199.445 157.092C198.675 157.381 197.95 157.663 197.262 157.931C194.998 158.812 193.139 159.535 191.454 159.842C190.368 160.04 189.428 160.046 188.569 159.823C187.719 159.603 186.884 159.142 186.03 158.306C182.656 155.001 182.829 149.05 186.782 144.998C190.736 140.946 196.671 140.637 200.045 143.942C203.377 147.204 203.251 153.044 199.445 157.092Z" fill="#EC9D27" stroke="black" stroke-width="2"/>
<path d="M219.031 134.195C219.146 134.477 219.143 134.779 218.936 135.188C218.711 135.631 218.262 136.155 217.542 136.756C216.105 137.957 213.861 139.244 211.138 140.65C209.763 141.36 208.272 142.096 206.725 142.86C202.279 145.055 197.377 147.476 193.451 150.147C186.151 153.085 179.967 155.284 175.385 156.171C173.076 156.618 171.271 156.711 169.97 156.456C168.711 156.21 168.032 155.668 167.706 154.87C167.387 154.087 167.506 152.991 168.358 151.533C169.201 150.091 170.673 148.458 172.714 146.743C176.785 143.321 182.939 139.723 190.211 136.793C197.483 133.864 204.421 132.189 209.742 131.827C212.407 131.646 214.609 131.799 216.225 132.251C217.857 132.708 218.711 133.412 219.031 134.195Z" fill="#EC9D27" stroke="black" stroke-width="2"/>
<path d="M189.516 154.793C188.997 154.92 188.51 155.044 188.05 155.161C186.436 155.573 185.154 155.9 183.944 155.944C182.467 155.997 181.158 155.612 179.677 154.162C176.602 151.151 176.357 146.839 178.625 144.515C180.893 142.19 185.202 142.337 188.277 145.348C191.265 148.274 191.581 152.428 189.516 154.793Z" fill="#EC9D27" stroke="black" stroke-width="2"/>
<path d="M83.2155 162.5L88.2157 131L107.601 144.74C108.792 145.584 110.072 146.295 111.418 146.861L130.57 154.909L179.361 137.111L181.216 182L131.671 177.562L83.2155 162.5Z" fill="#172025"/>
<path d="M168.767 157.934L174.388 140.486L181.638 137L183.607 177.523L176.053 174.756L168.767 157.934Z" fill="#FFFFFD"/>
<path d="M83.7157 159L88.2158 131L107.601 144.74C108.792 145.584 110.072 146.295 111.418 146.861L130.571 154.909L179.361 137.111L181.475 180.637L131.671 177.562L83.7157 159Z" fill="#1E272C"/>
<path d="M10.7153 183L60.2158 140.5L50.7889 174.671L36.2158 196L44.7158 209L32.2157 244L10.7153 183Z" fill="#172025"/>
<path d="M10.4642 182.651L61.2156 136.5L51.7887 170.671L36.2156 190.5L45.7156 205L36.2156 241L10.4642 182.651Z" fill="#1E272C"/>
<rect x="60.7156" y="114" width="25" height="65" fill="#EC9D27"/>
<path d="M64.2156 123L94.9595 254.25H33.4717L64.2156 123Z" fill="#FFFFFD"/>
<path d="M83.2156 123L98.5875 188.625L113.959 254.25H52.4717L83.2156 123Z" fill="#FFFFFD"/>
<path d="M86.2156 123L127.5 315.5L57 311L67.5 219.5L86.2156 123Z" fill="#1E272C"/>
<path d="M161.716 83.7669C161.716 111.861 141.009 134 116.216 134C91.8028 134 71.3517 112.535 70.7301 85.0553C77.9998 75.2371 85.2713 68.376 93.6611 63.8939C102.332 59.2619 112.517 57 125.716 57C132.584 57 138.286 57.0547 143.069 57.5721C147.855 58.09 151.338 59.0391 153.91 60.5818C158.586 63.3861 161.716 69.118 161.716 83.7669Z" fill="#EC9D27" stroke="#1C1E26" stroke-width="8"/>
<path d="M161.716 83.5092C161.716 110.29 142.688 132 119.216 132C95.7435 132 76.7156 110.29 76.7156 83.5092C90.0237 64.3926 103.9 56 127.372 56C150.844 56 161.716 56.7285 161.716 83.5092Z" fill="#EC9D27"/>
<path d="M156.342 61.5994C166.557 72.1535 164.514 80.9375 163.772 91.4191C155.942 91.8966 144.426 93.573 134.211 83.0189C123.996 72.4648 125.765 61.206 126.781 53.1993C138.092 53.6729 146.127 51.0453 156.342 61.5994Z" fill="#172025"/>
<ellipse cx="148.279" cy="61.1202" rx="5" ry="2.5" transform="rotate(20.9151 148.279 61.1202)" fill="#1F282F"/>
<path d="M36.7156 57H88.7156V111.5L84.7156 130H36.7156V57Z" fill="#EB9D26"/>
<path d="M24.4395 40.8669L114.172 10.9641L129.95 58.3089L110.285 62.9599C93.1728 67.0071 76.4498 72.551 60.3089 79.5274L40.2168 88.2117L24.4395 40.8669Z" fill="#1E272C"/>
<path d="M8.71558 45L14.7778 104.25H2.6534L8.71558 45Z" fill="#1E272C"/>
<path d="M57.7156 0L141.216 4.5L98.9 60L1.71558 51.8919L57.7156 0Z" fill="#172025"/>
<path d="M52.2156 4.5H143.216L97.2156 52.5H2.21558L52.2156 4.5Z" fill="#1E272C"/>
<path d="M99.4924 97.7459C96.0698 103.741 88.2405 105.716 82.0053 102.156C75.7702 98.5968 73.4902 90.851 76.9128 84.8556C82.8655 82.4965 87.6403 81.1922 94.3999 80.4452C100.635 84.0047 102.915 91.7506 99.4924 97.7459Z" fill="#FFFFFD"/>
<circle cx="84.7156" cy="92" r="8" fill="#121C25"/>
<circle cx="81.2156" cy="91.5" r="3.5" fill="#D9D9D9"/>
<path d="M122.442 85.2774C120.096 89.3871 114.729 90.7407 110.455 88.3007C106.181 85.8606 104.618 80.551 106.964 76.4413C111.044 74.8242 114.317 73.9301 118.951 73.4181C123.225 75.8581 124.788 81.1677 122.442 85.2774Z" fill="#FFFFFD"/>
<circle cx="112.312" cy="81.3387" r="5.48386" fill="#121C25"/>
<circle cx="109.913" cy="80.9959" r="2.39919" fill="#D9D9D9"/>
<path d="M86.9272 130.74L87.4776 174.941L74.7434 187.485L86.9272 130.74Z" fill="#172025"/>
<path d="M86.9271 130.74L85.5025 173.224L73.8833 188.953L86.9271 130.74Z" fill="#1E272C"/>
<path d="M63.2156 123L70.5 171.5L98.5 310L21 314L63.2156 123Z" fill="#172025"/>
<path d="M60.2157 123L91 311L13.5 321.5L60.2157 123Z" fill="#1E272C"/>
<path d="M60.5943 132.79L61.8937 174.419L73.3391 187.489L60.5943 132.79Z" fill="#172025"/>
<path d="M60.5943 132.79L63.3699 172.746L74.1666 188.897L60.5943 132.79Z" fill="#1E272C"/>
<ellipse cx="44.2156" cy="107.5" rx="22.5" ry="48.5" fill="#172025"/>
</svg>
