<svg width="175" height="322" viewBox="0 0 175 322" fill="none" xmlns="http://www.w3.org/2000/svg">
<path d="M10.7151 183L60.2155 140.5L50.7886 174.671L36.2156 196L44.7155 209L32.2154 244L10.7151 183Z" fill="#172025"/>
<path d="M135.881 180.38L84.097 129.679L91.2695 167.106L105.606 191.422L94.6202 204.333L105.194 242.981L135.881 180.38Z" fill="#172025"/>
<path d="M10.464 182.651L61.2154 136.5L51.7885 170.671L36.2154 190.5L45.7154 205L36.2153 241L10.464 182.651Z" fill="#1E272C"/>
<path d="M136.202 180.035L83.3748 125.309L90.5473 162.736L106.173 185.565L93.8981 199.963L100.965 239.346L136.202 180.035Z" fill="#1E272C"/>
<rect x="60.7153" y="114" width="25" height="65" fill="#EC9D27"/>
<path d="M64.2153 123L94.9592 254.25H33.4714L64.2153 123Z" fill="#FFFFFD"/>
<path d="M83.2153 123L98.5873 188.625L113.959 254.25H52.4714L83.2153 123Z" fill="#FFFFFD"/>
<path d="M86.2153 123L127.5 315.5L56.9998 311L67.4998 219.5L86.2153 123Z" fill="#1E272C"/>
<path d="M161.715 83.7669C161.715 111.861 141.008 134 116.215 134C91.8026 134 71.3515 112.535 70.7299 85.0553C77.9995 75.2371 85.271 68.376 93.6608 63.8939C102.331 59.2619 112.517 57 125.715 57C132.583 57 138.286 57.0547 143.068 57.5721C147.855 58.09 151.337 59.0391 153.91 60.5818C158.586 63.3861 161.715 69.118 161.715 83.7669Z" fill="#EC9D27" stroke="#1C1E26" stroke-width="8"/>
<path d="M161.715 83.5092C161.715 110.29 142.687 132 119.215 132C95.7432 132 76.7153 110.29 76.7153 83.5092C90.0234 64.3926 103.9 56 127.372 56C150.844 56 161.715 56.7285 161.715 83.5092Z" fill="#EC9D27"/>
<path d="M156.342 61.5994C166.557 72.1535 164.514 80.9375 163.772 91.4191C155.942 91.8966 144.426 93.573 134.211 83.0189C123.996 72.4648 125.765 61.206 126.781 53.1993C138.092 53.6729 146.127 51.0453 156.342 61.5994Z" fill="#172025"/>
<ellipse cx="148.278" cy="61.1202" rx="5" ry="2.5" transform="rotate(20.9151 148.278 61.1202)" fill="#1F282F"/>
<path d="M36.7153 57H88.7153V111.5L84.7153 130H36.7153V57Z" fill="#EB9D26"/>
<path d="M24.4392 40.8669L114.172 10.9641L129.949 58.3089L110.284 62.9599C93.1726 67.0071 76.4495 72.551 60.3087 79.5274L40.2165 88.2117L24.4392 40.8669Z" fill="#1E272C"/>
<path d="M8.71533 45L14.7775 104.25H2.65315L8.71533 45Z" fill="#1E272C"/>
<path d="M57.7153 0L141.215 4.5L98.8997 60L1.71533 51.8919L57.7153 0Z" fill="#172025"/>
<path d="M52.2153 4.5H143.215L97.2153 52.5H2.21533L52.2153 4.5Z" fill="#1E272C"/>
<path d="M99.4922 97.7459C96.0695 103.741 88.2403 105.716 82.0051 102.156C75.7699 98.5968 73.4899 90.851 76.9126 84.8556C82.8653 82.4965 87.6401 81.1922 94.3997 80.4452C100.635 84.0047 102.915 91.7506 99.4922 97.7459Z" fill="#FFFFFD"/>
<circle cx="84.7153" cy="92" r="8" fill="#121C25"/>
<circle cx="81.2153" cy="91.5" r="3.5" fill="#D9D9D9"/>
<path d="M122.441 85.2774C120.095 89.3871 114.728 90.7407 110.454 88.3007C106.18 85.8606 104.617 80.551 106.964 76.4413C111.044 74.8242 114.317 73.9301 118.951 73.4181C123.225 75.8581 124.788 81.1677 122.441 85.2774Z" fill="#FFFFFD"/>
<circle cx="112.312" cy="81.3387" r="5.48386" fill="#121C25"/>
<circle cx="109.913" cy="80.9959" r="2.39919" fill="#D9D9D9"/>
<path d="M86.927 130.74L87.4773 174.941L74.7431 187.485L86.927 130.74Z" fill="#172025"/>
<path d="M86.9269 130.74L85.5023 173.224L73.883 188.953L86.9269 130.74Z" fill="#1E272C"/>
<path d="M63.2153 123L70.4998 171.5L98.4998 310L20.9998 314L63.2153 123Z" fill="#172025"/>
<path d="M60.2155 123L90.9998 311L13.4998 321.5L60.2155 123Z" fill="#1E272C"/>
<path d="M60.594 132.79L61.8935 174.419L73.3389 187.489L60.594 132.79Z" fill="#172025"/>
<path d="M60.5941 132.79L63.3697 172.746L74.1664 188.897L60.5941 132.79Z" fill="#1E272C"/>
<ellipse cx="44.2153" cy="107.5" rx="22.5" ry="48.5" fill="#172025"/>
</svg>
