<svg width="197" height="322" viewBox="0 0 197 322" fill="none" xmlns="http://www.w3.org/2000/svg">
<path d="M179.554 143.096C179.657 144.81 179.196 145.824 178.498 146.533C177.714 147.329 176.526 147.855 175.021 148.33C174.525 148.486 173.982 148.64 173.419 148.799C172.38 149.093 171.276 149.406 170.285 149.787C168.795 150.361 167.317 151.168 166.249 152.538C162.431 154.188 159.231 155.371 156.851 155.772C155.635 155.977 154.728 155.959 154.097 155.765C153.515 155.587 153.182 155.269 152.995 154.775C152.816 154.303 152.832 153.657 153.211 152.791C153.591 151.923 154.298 150.932 155.327 149.887C157.38 147.803 160.566 145.657 164.405 143.991C168.244 142.324 171.926 141.488 174.755 141.453C176.173 141.436 177.325 141.62 178.162 141.96C178.922 142.268 179.348 142.67 179.554 143.096Z" fill="#EC9D27" stroke="black" stroke-width="2"/>
<path d="M184.429 154.476C184.242 156.18 183.619 157.086 182.812 157.648C181.906 158.279 180.648 158.563 179.088 158.736C178.574 158.793 178.013 158.838 177.433 158.884C176.362 158.97 175.224 159.062 174.186 159.243C172.624 159.516 171.035 160.021 169.755 161.16C165.721 162.035 162.375 162.573 159.966 162.502C158.735 162.465 157.846 162.271 157.257 161.957C156.714 161.667 156.441 161.29 156.341 160.77C156.245 160.273 156.369 159.641 156.888 158.864C157.408 158.084 158.27 157.248 159.458 156.421C161.829 154.773 165.324 153.285 169.38 152.397C173.436 151.509 177.199 151.407 179.988 151.926C181.385 152.186 182.487 152.592 183.253 153.09C183.949 153.542 184.299 154.02 184.429 154.476Z" fill="#EC9D27" stroke="black" stroke-width="2"/>
<path d="M153.479 166.235L153.512 165.812L153.259 165.484C151.862 163.672 151.046 162.295 150.654 161.275C150.257 160.241 150.368 159.78 150.477 159.586C150.601 159.365 150.943 159.085 151.788 158.927C152.606 158.775 153.701 158.775 155.019 158.903C157.651 159.158 160.926 159.891 164.157 160.63C164.308 160.665 164.459 160.699 164.61 160.734C167.643 161.429 170.625 162.111 172.819 162.318C175.046 162.529 176.772 162.723 178.111 162.95C179.462 163.179 180.346 163.43 180.926 163.72C181.473 163.994 181.682 164.268 181.79 164.543C181.911 164.85 181.963 165.301 181.916 166.047C181.214 167.785 180.477 168.81 179.756 169.43C179.027 170.058 178.245 170.332 177.36 170.443C176.643 170.533 175.913 170.514 175.087 170.492C174.842 170.486 174.59 170.479 174.326 170.475C173.216 170.458 171.985 170.493 170.717 170.88C166.098 172.291 161.622 171.764 158.353 170.473C156.716 169.827 155.422 169.005 154.573 168.181C153.687 167.322 153.449 166.632 153.479 166.235Z" fill="#EC9D27" stroke="black" stroke-width="2"/>
<path d="M168.335 169.665C162.61 170.906 159.1 172.483 154.883 168.033C150.667 163.584 149.853 157.101 153.065 153.553C156.278 150.005 166.517 144.5 166.517 155.185C170.733 159.634 171.547 166.117 168.335 169.665Z" fill="#EC9D27"/>
<path d="M159.621 135.124C160.852 134.969 161.673 135.04 162.203 135.217C162.71 135.387 162.929 135.642 163.045 135.918C163.181 136.242 163.232 136.735 163.135 137.455C163.04 138.165 162.814 138.995 162.5 139.922C162.186 140.844 161.799 141.82 161.396 142.822C161.354 142.927 161.311 143.032 161.269 143.137C160.91 144.029 160.543 144.94 160.228 145.812C159.876 146.785 159.572 147.755 159.406 148.653C159.244 149.534 159.193 150.459 159.455 151.28C160.832 155.588 161.712 159.173 161.735 161.849C161.746 163.175 161.544 164.19 161.156 164.939C160.783 165.659 160.2 166.208 159.284 166.552C157.52 167.217 155.288 166.507 153.029 164.349C150.798 162.217 148.721 158.818 147.387 154.644C146.182 150.875 147.994 146.475 150.964 142.604C152.422 140.705 154.103 139.009 155.689 137.69C157.238 136.4 158.643 135.515 159.621 135.124Z" fill="#EC9D27" stroke="black" stroke-width="2"/>
<path d="M163.333 166.646C158.947 167.871 156.224 169.241 153.221 166.072C150.218 162.903 149.876 158.023 152.458 155.171C155.041 152.319 159.568 152.576 162.571 155.745C165.574 158.913 165.915 163.794 163.333 166.646Z" fill="#EC9D27"/>
<path d="M83.5943 159.006L87.0346 131.057L102.5 147.5L122 172.5L143 154L171.5 193L113.5 207L83.5943 159.006Z" fill="#172025"/>
<path d="M148.707 175.927L142.084 159.241L144.853 153L170.266 184.625L163.576 185.986L148.707 175.927Z" fill="#FFFFFD"/>
<path d="M83.5944 159.006L87.0347 131.057L102.5 147.5L122 172.5L143 154L171.5 193L119.5 203L83.5944 159.006Z" fill="#1E272C"/>
<path d="M10.7151 183L60.2155 140.5L50.7886 174.671L36.2156 196L44.7155 209L32.2154 244L10.7151 183Z" fill="#172025"/>
<path d="M10.464 182.651L61.2154 136.5L51.7885 170.671L36.2154 190.5L45.7154 205L36.2153 241L10.464 182.651Z" fill="#1E272C"/>
<rect x="60.7153" y="114" width="25" height="65" fill="#EC9D27"/>
<path d="M64.2153 123L94.9592 254.25H33.4714L64.2153 123Z" fill="#FFFFFD"/>
<path d="M83.2153 123L98.5873 188.625L113.959 254.25H52.4714L83.2153 123Z" fill="#FFFFFD"/>
<path d="M86.2153 123L127.5 315.5L56.9998 311L67.4998 219.5L86.2153 123Z" fill="#1E272C"/>
<path d="M161.715 83.7669C161.715 111.861 141.008 134 116.215 134C91.8026 134 71.3515 112.535 70.7299 85.0553C77.9995 75.2371 85.271 68.376 93.6608 63.8939C102.331 59.2619 112.517 57 125.715 57C132.583 57 138.286 57.0547 143.068 57.5721C147.855 58.09 151.337 59.0391 153.91 60.5818C158.586 63.3861 161.715 69.118 161.715 83.7669Z" fill="#EC9D27" stroke="#1C1E26" stroke-width="8"/>
<path d="M161.715 83.5092C161.715 110.29 142.687 132 119.215 132C95.7432 132 76.7153 110.29 76.7153 83.5092C90.0234 64.3926 103.9 56 127.372 56C150.844 56 161.715 56.7285 161.715 83.5092Z" fill="#EC9D27"/>
<path d="M156.342 61.5994C166.557 72.1535 164.514 80.9375 163.772 91.4191C155.942 91.8966 144.426 93.573 134.211 83.0189C123.996 72.4648 125.765 61.206 126.781 53.1993C138.092 53.6729 146.127 51.0453 156.342 61.5994Z" fill="#172025"/>
<ellipse cx="148.278" cy="61.1202" rx="5" ry="2.5" transform="rotate(20.9151 148.278 61.1202)" fill="#1F282F"/>
<path d="M36.7153 57H88.7153V111.5L84.7153 130H36.7153V57Z" fill="#EB9D26"/>
<path d="M24.4392 40.8669L114.172 10.9641L129.949 58.3089L110.284 62.9599C93.1726 67.0071 76.4495 72.551 60.3087 79.5274L40.2165 88.2117L24.4392 40.8669Z" fill="#1E272C"/>
<path d="M8.71533 45L14.7775 104.25H2.65315L8.71533 45Z" fill="#1E272C"/>
<path d="M57.7153 0L141.215 4.5L98.8997 60L1.71533 51.8919L57.7153 0Z" fill="#172025"/>
<path d="M52.2153 4.5H143.215L97.2153 52.5H2.21533L52.2153 4.5Z" fill="#1E272C"/>
<path d="M99.4922 97.7459C96.0695 103.741 88.2403 105.716 82.0051 102.156C75.7699 98.5968 73.4899 90.851 76.9126 84.8556C82.8653 82.4965 87.6401 81.1922 94.3997 80.4452C100.635 84.0047 102.915 91.7506 99.4922 97.7459Z" fill="#FFFFFD"/>
<circle cx="84.7153" cy="92" r="8" fill="#121C25"/>
<circle cx="81.2153" cy="91.5" r="3.5" fill="#D9D9D9"/>
<path d="M122.441 85.2774C120.095 89.3871 114.728 90.7407 110.454 88.3007C106.18 85.8606 104.617 80.551 106.964 76.4413C111.044 74.8242 114.317 73.9301 118.951 73.4181C123.225 75.8581 124.788 81.1677 122.441 85.2774Z" fill="#FFFFFD"/>
<circle cx="112.312" cy="81.3387" r="5.48386" fill="#121C25"/>
<circle cx="109.913" cy="80.9959" r="2.39919" fill="#D9D9D9"/>
<path d="M86.927 130.74L87.4773 174.941L74.7431 187.485L86.927 130.74Z" fill="#172025"/>
<path d="M86.9269 130.74L85.5023 173.224L73.883 188.953L86.9269 130.74Z" fill="#1E272C"/>
<path d="M63.2153 123L70.4998 171.5L98.4998 310L20.9998 314L63.2153 123Z" fill="#172025"/>
<path d="M60.2155 123L90.9998 311L13.4998 321.5L60.2155 123Z" fill="#1E272C"/>
<path d="M60.594 132.79L61.8935 174.419L73.3389 187.489L60.594 132.79Z" fill="#172025"/>
<path d="M60.5941 132.79L63.3697 172.746L74.1664 188.897L60.5941 132.79Z" fill="#1E272C"/>
<ellipse cx="44.2153" cy="107.5" rx="22.5" ry="48.5" fill="#172025"/>
</svg>
