<svg width="198" height="322" viewBox="0 0 198 322" fill="none" xmlns="http://www.w3.org/2000/svg">
<path d="M83.5943 159.006L87.0346 131.057L102.5 147.5L122 172.5L143 154L171.5 193L113.5 207L83.5943 159.006Z" fill="#172025"/>
<path d="M148.707 175.927L142.084 159.241L144.853 153L170.266 184.625L163.576 185.986L148.707 175.927Z" fill="#FFFFFD"/>
<path d="M83.5944 159.006L87.0347 131.057L102.5 147.5L122 172.5L143 154L171.5 193L119.5 203L83.5944 159.006Z" fill="#1E272C"/>
<path d="M180.553 143.096C180.657 144.81 180.196 145.824 179.498 146.533C178.714 147.329 177.526 147.855 176.02 148.33C175.525 148.486 174.982 148.64 174.419 148.799C173.38 149.093 172.275 149.406 171.285 149.787C169.795 150.361 168.317 151.168 167.249 152.538C163.43 154.188 160.231 155.371 157.851 155.772C156.634 155.977 155.728 155.959 155.097 155.765C154.514 155.587 154.182 155.269 153.995 154.775C153.816 154.303 153.832 153.657 154.211 152.791C154.591 151.923 155.298 150.932 156.327 149.887C158.38 147.803 161.566 145.657 165.405 143.991C169.244 142.324 172.926 141.488 175.755 141.453C177.173 141.436 178.325 141.62 179.162 141.96C179.922 142.268 180.348 142.67 180.553 143.096Z" fill="#EC9D27" stroke="black" stroke-width="2"/>
<path d="M185.429 154.476C185.242 156.18 184.618 157.086 183.812 157.648C182.906 158.279 181.648 158.563 180.087 158.736C179.574 158.793 179.013 158.838 178.433 158.884C177.362 158.97 176.223 159.062 175.186 159.243C173.623 159.516 172.035 160.021 170.755 161.16C166.721 162.035 163.374 162.573 160.966 162.502C159.734 162.465 158.845 162.271 158.257 161.957C157.714 161.667 157.441 161.29 157.341 160.77C157.245 160.273 157.369 159.641 157.888 158.864C158.408 158.084 159.27 157.248 160.458 156.421C162.829 154.773 166.324 153.285 170.38 152.397C174.436 151.509 178.198 151.407 180.987 151.926C182.385 152.186 183.487 152.592 184.253 153.09C184.948 153.542 185.299 154.02 185.429 154.476Z" fill="#EC9D27" stroke="black" stroke-width="2"/>
<path d="M154.479 166.235L154.512 165.812L154.259 165.484C152.862 163.672 152.046 162.295 151.654 161.275C151.257 160.241 151.368 159.78 151.477 159.586C151.601 159.365 151.942 159.085 152.788 158.927C153.606 158.775 154.7 158.775 156.019 158.903C158.651 159.158 161.926 159.891 165.157 160.63C165.308 160.665 165.459 160.699 165.609 160.734C168.643 161.429 171.624 162.111 173.819 162.318C176.046 162.529 177.772 162.723 179.111 162.95C180.462 163.179 181.346 163.43 181.926 163.72C182.473 163.994 182.682 164.268 182.79 164.543C182.911 164.85 182.962 165.301 182.916 166.047C182.213 167.785 181.477 168.81 180.756 169.43C180.027 170.058 179.245 170.332 178.36 170.443C177.642 170.533 176.912 170.514 176.086 170.492C175.842 170.486 175.589 170.479 175.326 170.475C174.216 170.458 172.984 170.493 171.716 170.88C167.097 172.291 162.622 171.764 159.353 170.473C157.716 169.827 156.422 169.005 155.573 168.181C154.687 167.322 154.448 166.632 154.479 166.235Z" fill="#EC9D27" stroke="black" stroke-width="2"/>
<path d="M169.335 169.665C163.61 170.906 160.1 172.483 155.883 168.033C151.667 163.584 150.853 157.101 154.065 153.553C157.278 150.005 167.517 144.5 167.517 155.185C171.733 159.634 172.547 166.117 169.335 169.665Z" fill="#EC9D27"/>
<path d="M160.62 135.124C161.852 134.969 162.673 135.04 163.203 135.217C163.71 135.387 163.928 135.642 164.044 135.918C164.181 136.242 164.232 136.735 164.135 137.455C164.04 138.165 163.814 138.995 163.499 139.922C163.186 140.844 162.799 141.82 162.396 142.822C162.354 142.927 162.311 143.032 162.269 143.137C161.909 144.029 161.543 144.94 161.227 145.812C160.876 146.785 160.571 147.755 160.406 148.653C160.243 149.534 160.192 150.459 160.455 151.28C161.832 155.588 162.712 159.173 162.735 161.849C162.746 163.175 162.544 164.19 162.156 164.939C161.783 165.659 161.199 166.208 160.284 166.552C158.519 167.217 156.288 166.507 154.029 164.349C151.798 162.217 149.721 158.818 148.387 154.644C147.182 150.875 148.994 146.475 151.964 142.604C153.422 140.705 155.102 139.009 156.688 137.69C158.238 136.4 159.642 135.515 160.62 135.124Z" fill="#EC9D27" stroke="black" stroke-width="2"/>
<path d="M164.333 166.646C159.947 167.871 157.223 169.241 154.22 166.072C151.217 162.903 150.876 158.023 153.458 155.171C156.04 152.319 160.568 152.576 163.571 155.745C166.574 158.913 166.915 163.794 164.333 166.646Z" fill="#EC9D27"/>
<path d="M10.7151 183L60.2155 140.5L50.7886 174.671L36.2156 196L44.7155 209L32.2154 244L10.7151 183Z" fill="#172025"/>
<path d="M10.464 182.651L61.2154 136.5L51.7885 170.671L36.2154 190.5L45.7154 205L36.2153 241L10.464 182.651Z" fill="#1E272C"/>
<rect x="60.7153" y="114" width="25" height="65" fill="#EC9D27"/>
<path d="M64.2153 123L94.9592 254.25H33.4714L64.2153 123Z" fill="#FFFFFD"/>
<path d="M83.2153 123L98.5873 188.625L113.959 254.25H52.4714L83.2153 123Z" fill="#FFFFFD"/>
<path d="M86.2153 123L127.5 315.5L56.9998 311L67.4998 219.5L86.2153 123Z" fill="#1E272C"/>
<path d="M161.715 83.7669C161.715 111.861 141.008 134 116.215 134C91.8026 134 71.3515 112.535 70.7299 85.0553C77.9995 75.2371 85.271 68.376 93.6608 63.8939C102.331 59.2619 112.517 57 125.715 57C132.583 57 138.286 57.0547 143.068 57.5721C147.855 58.09 151.337 59.0391 153.91 60.5818C158.586 63.3861 161.715 69.118 161.715 83.7669Z" fill="#EC9D27" stroke="#1C1E26" stroke-width="8"/>
<path d="M161.715 83.5092C161.715 110.29 142.687 132 119.215 132C95.7432 132 76.7153 110.29 76.7153 83.5092C90.0234 64.3926 103.9 56 127.372 56C150.844 56 161.715 56.7285 161.715 83.5092Z" fill="#EC9D27"/>
<path d="M156.342 61.5994C166.557 72.1535 164.514 80.9375 163.772 91.4191C155.942 91.8966 144.426 93.573 134.211 83.0189C123.996 72.4648 125.765 61.206 126.781 53.1993C138.092 53.6729 146.127 51.0453 156.342 61.5994Z" fill="#172025"/>
<ellipse cx="148.278" cy="61.1202" rx="5" ry="2.5" transform="rotate(20.9151 148.278 61.1202)" fill="#1F282F"/>
<path d="M36.7153 57H88.7153V111.5L84.7153 130H36.7153V57Z" fill="#EB9D26"/>
<path d="M24.4392 40.8669L114.172 10.9641L129.949 58.3089L110.284 62.9599C93.1726 67.0071 76.4495 72.551 60.3087 79.5274L40.2165 88.2117L24.4392 40.8669Z" fill="#1E272C"/>
<path d="M8.71533 45L14.7775 104.25H2.65315L8.71533 45Z" fill="#1E272C"/>
<path d="M57.7153 0L141.215 4.5L98.8997 60L1.71533 51.8919L57.7153 0Z" fill="#172025"/>
<path d="M52.2153 4.5H143.215L97.2153 52.5H2.21533L52.2153 4.5Z" fill="#1E272C"/>
<path d="M99.4922 97.7459C96.0695 103.741 88.2403 105.716 82.0051 102.156C75.7699 98.5968 73.4899 90.851 76.9126 84.8556C82.8653 82.4965 87.6401 81.1922 94.3997 80.4452C100.635 84.0047 102.915 91.7506 99.4922 97.7459Z" fill="#FFFFFD"/>
<circle cx="84.7153" cy="92" r="8" fill="#121C25"/>
<circle cx="81.2153" cy="91.5" r="3.5" fill="#D9D9D9"/>
<path d="M122.441 85.2774C120.095 89.3871 114.728 90.7407 110.454 88.3007C106.18 85.8606 104.617 80.551 106.964 76.4413C111.044 74.8242 114.317 73.9301 118.951 73.4181C123.225 75.8581 124.788 81.1677 122.441 85.2774Z" fill="#FFFFFD"/>
<circle cx="112.312" cy="81.3387" r="5.48386" fill="#121C25"/>
<circle cx="109.913" cy="80.9959" r="2.39919" fill="#D9D9D9"/>
<path d="M86.927 130.74L87.4773 174.941L74.7431 187.485L86.927 130.74Z" fill="#172025"/>
<path d="M86.9269 130.74L85.5023 173.224L73.883 188.953L86.9269 130.74Z" fill="#1E272C"/>
<path d="M63.2153 123L70.4998 171.5L98.4998 310L20.9998 314L63.2153 123Z" fill="#172025"/>
<path d="M60.2155 123L90.9998 311L13.4998 321.5L60.2155 123Z" fill="#1E272C"/>
<path d="M60.594 132.79L61.8935 174.419L73.3389 187.489L60.594 132.79Z" fill="#172025"/>
<path d="M60.5941 132.79L63.3697 172.746L74.1664 188.897L60.5941 132.79Z" fill="#1E272C"/>
<ellipse cx="44.2153" cy="107.5" rx="22.5" ry="48.5" fill="#172025"/>
</svg>
