<svg id="eae50cRPzIJ1" xmlns="http://www.w3.org/2000/svg" xmlns:xlink="http://www.w3.org/1999/xlink" viewBox="0 0 388 156" shape-rendering="geometricPrecision" text-rendering="geometricPrecision">
<style><![CDATA[
#eae50cRPzIJ3_tr {animation: eae50cRPzIJ3_tr__tr 3000ms linear 1 normal forwards}@keyframes eae50cRPzIJ3_tr__tr { 0% {transform: translate(229.5075px,95.5px) rotate(0deg)} 51.333333% {transform: translate(229.5075px,95.5px) rotate(0deg)} 58.666667% {transform: translate(229.5075px,95.5px) rotate(-6.041199deg)} 78.333333% {transform: translate(229.5075px,95.5px) rotate(-6.041199deg)} 83.666667% {transform: translate(229.5075px,95.5px) rotate(0deg)} 100% {transform: translate(229.5075px,95.5px) rotate(0deg)}} #eae50cRPzIJ4_tr {animation: eae50cRPzIJ4_tr__tr 3000ms linear 1 normal forwards}@keyframes eae50cRPzIJ4_tr__tr { 0% {transform: translate(232.5px,94px) rotate(0deg)} 51.333333% {transform: translate(232.5px,94px) rotate(0deg)} 58.666667% {transform: translate(232.5px,94px) rotate(-6.041199deg)} 78.333333% {transform: translate(232.5px,94px) rotate(-6.041199deg)} 83.666667% {transform: translate(232.5px,94px) rotate(0deg)} 100% {transform: translate(232.5px,94px) rotate(0deg)}} #eae50cRPzIJ10_to {animation: eae50cRPzIJ10_to__to 3000ms linear 1 normal forwards}@keyframes eae50cRPzIJ10_to__to { 0% {transform: translate(280.652405px,126.086999px)} 62.333333% {transform: translate(280.652405px,126.086999px)} 68% {transform: translate(285.006774px,113.396243px)} 83.666667% {transform: translate(284.114313px,112.787178px)} 89.666667% {transform: translate(280.652405px,126.086999px)} 100% {transform: translate(280.652405px,126.086999px)}} #eae50cRPzIJ10_tr {animation: eae50cRPzIJ10_tr__tr 3000ms linear 1 normal forwards}@keyframes eae50cRPzIJ10_tr__tr { 0% {transform: rotate(0deg)} 62.333333% {transform: rotate(0deg)} 68% {transform: rotate(-40.281986deg)} 83.666667% {transform: rotate(-40.281986deg)} 89.666667% {transform: rotate(0deg)} 100% {transform: rotate(0deg)}} #eae50cRPzIJ10_ts {animation: eae50cRPzIJ10_ts__ts 3000ms linear 1 normal forwards}@keyframes eae50cRPzIJ10_ts__ts { 0% {transform: scale(1,1)} 62.333333% {transform: scale(1,1)} 68% {transform: scale(1.971572,0.578075)} 83.666667% {transform: scale(1.971572,0.578075)} 89.666667% {transform: scale(1,1)} 100% {transform: scale(1,1)}} #eae50cRPzIJ14_tr {animation: eae50cRPzIJ14_tr__tr 3000ms linear 1 normal forwards}@keyframes eae50cRPzIJ14_tr__tr { 0% {transform: translate(184.75px,30px) rotate(0deg)} 50% {transform: translate(184.75px,30px) rotate(0deg)} 58.333333% {transform: translate(184.75px,30px) rotate(-4.529998deg)} 78.666667% {transform: translate(184.75px,30px) rotate(-4.529998deg)} 86.666667% {transform: translate(184.75px,30px) rotate(0deg)} 100% {transform: translate(184.75px,30px) rotate(0deg)}} #eae50cRPzIJ15_tr {animation: eae50cRPzIJ15_tr__tr 3000ms linear 1 normal forwards}@keyframes eae50cRPzIJ15_tr__tr { 0% {transform: translate(186px,28.5px) rotate(-0.238232deg)} 50% {transform: translate(186px,28.5px) rotate(-0.238232deg)} 58.333333% {transform: translate(186px,28.5px) rotate(-4.808388deg)} 78.666667% {transform: translate(186px,28.5px) rotate(-4.808388deg)} 86.666667% {transform: translate(186px,28.5px) rotate(-0.238232deg)} 100% {transform: translate(186px,28.5px) rotate(-0.238232deg)}} #eae50cRPzIJ16_to {animation: eae50cRPzIJ16_to__to 3000ms linear 1 normal forwards}@keyframes eae50cRPzIJ16_to__to { 0% {transform: translate(122px,74.625px)} 50% {transform: translate(122px,74.625px)} 58.333333% {transform: translate(122.486165px,83.228177px)} 78.666667% {transform: translate(122.486165px,83.228177px)} 82% {transform: translate(122px,74.625px)} 85.666667% {transform: translate(117.289825px,74.625px)} 90.333333% {transform: translate(122px,74.625px)} 94.333333% {transform: translate(117.289825px,74.625px)} 98.666667% {transform: translate(122px,74.625px)} 100% {transform: translate(122px,74.625px)}} #eae50cRPzIJ16_tr {animation: eae50cRPzIJ16_tr__tr 3000ms linear 1 normal forwards}@keyframes eae50cRPzIJ16_tr__tr { 0% {transform: rotate(-0.238232deg)} 50% {transform: rotate(-0.238232deg)} 58.333333% {transform: rotate(-4.808388deg)} 78.666667% {transform: rotate(-4.808388deg)} 82% {transform: rotate(-0.238232deg)} 85.666667% {transform: rotate(6.721252deg)} 90.333333% {transform: rotate(-0.238232deg)} 94.333333% {transform: rotate(2.32535deg)} 98.666667% {transform: rotate(-0.238232deg)} 100% {transform: rotate(-0.238232deg)}} #eae50cRPzIJ17_tr {animation: eae50cRPzIJ17_tr__tr 3000ms linear 1 normal forwards}@keyframes eae50cRPzIJ17_tr__tr { 0% {transform: translate(190.478996px,49.587902px) rotate(-0.238232deg)} 50% {transform: translate(190.478996px,49.587902px) rotate(-0.238232deg)} 58.333333% {transform: translate(190.478996px,49.587902px) rotate(-4.808388deg)} 78.666667% {transform: translate(190.478996px,49.587902px) rotate(-4.808388deg)} 86.666667% {transform: translate(190.478996px,49.587902px) rotate(-0.238232deg)} 100% {transform: translate(190.478996px,49.587902px) rotate(-0.238232deg)}} #eae50cRPzIJ18_to {animation: eae50cRPzIJ18_to__to 3000ms linear 1 normal forwards}@keyframes eae50cRPzIJ18_to__to { 0% {transform: translate(154.19215px,107.5px)} 6.666667% {transform: translate(150px,107.5px)} 16.666667% {transform: translate(152.477121px,107.5px)} 100% {transform: translate(152.477121px,107.5px)}} #eae50cRPzIJ18_tr {animation: eae50cRPzIJ18_tr__tr 3000ms linear 1 normal forwards}@keyframes eae50cRPzIJ18_tr__tr { 0% {transform: rotate(0deg)} 6.666667% {transform: rotate(11.620166deg)} 16.666667% {transform: rotate(1.214446deg)} 100% {transform: rotate(1.214446deg)}} #eae50cRPzIJ19_ts {animation: eae50cRPzIJ19_ts__ts 3000ms linear 1 normal forwards}@keyframes eae50cRPzIJ19_ts__ts { 0% {transform: translate(201.48732px,92.186264px) scale(1,1)} 23% {transform: translate(201.48732px,92.186264px) scale(1,1)} 25% {transform: translate(201.48732px,92.186264px) scale(1,0.573633)} 27% {transform: translate(201.48732px,92.186264px) scale(1,1)} 100% {transform: translate(201.48732px,92.186264px) scale(1,1)}} #eae50cRPzIJ20_to {animation: eae50cRPzIJ20_to__to 3000ms linear 1 normal forwards}@keyframes eae50cRPzIJ20_to__to { 0% {transform: translate(198px,92px)} 52% {transform: translate(198px,92px)} 64% {transform: translate(203.512668px,89.513916px)} 82% {transform: translate(203.512668px,89.513916px)} 89.666667% {transform: translate(198px,92.185666px)} 100% {transform: translate(198px,92.185666px)}} #eae50cRPzIJ20_ts {animation: eae50cRPzIJ20_ts__ts 3000ms linear 1 normal forwards}@keyframes eae50cRPzIJ20_ts__ts { 0% {transform: scale(1,1)} 22% {transform: scale(1,1)} 24% {transform: scale(1,0.573633)} 26% {transform: scale(1,1)} 100% {transform: scale(1,1)}} #eae50cRPzIJ21_to {animation: eae50cRPzIJ21_to__to 3000ms linear 1 normal forwards}@keyframes eae50cRPzIJ21_to__to { 0% {transform: translate(194.5px,91.5px)} 52% {transform: translate(194.5px,91.5px)} 64% {transform: translate(201.487335px,86.89509px)} 82% {transform: translate(201.487335px,86.89509px)} 89.666667% {transform: translate(194.5px,91.7117px)} 100% {transform: translate(194.5px,91.7117px)}} #eae50cRPzIJ21_ts {animation: eae50cRPzIJ21_ts__ts 3000ms linear 1 normal forwards}@keyframes eae50cRPzIJ21_ts__ts { 0% {transform: scale(1,1)} 22% {transform: scale(1,1)} 24% {transform: scale(1,0.573633)} 26% {transform: scale(1,1)} 100% {transform: scale(1,1)}} #eae50cRPzIJ22_ts {animation: eae50cRPzIJ22_ts__ts 3000ms linear 1 normal forwards}@keyframes eae50cRPzIJ22_ts__ts { 0% {transform: translate(227.987px,81.466419px) scale(1,1)} 23% {transform: translate(227.987px,81.466419px) scale(1,1)} 25% {transform: translate(227.987px,81.466419px) scale(1,0.811878)} 27% {transform: translate(227.987px,81.466419px) scale(1,1)} 100% {transform: translate(227.987px,81.466419px) scale(1,1)}} #eae50cRPzIJ23_to {animation: eae50cRPzIJ23_to__to 3000ms linear 1 normal forwards}@keyframes eae50cRPzIJ23_to__to { 0% {transform: translate(225.597008px,81.338703px)} 52% {transform: translate(225.597008px,81.338703px)} 64% {transform: translate(231.33292px,80.108863px)} 82% {transform: translate(231.33292px,80.108863px)} 89.666667% {transform: translate(225.597198px,81.466011px)} 100% {transform: translate(225.597198px,81.466011px)}} #eae50cRPzIJ23_ts {animation: eae50cRPzIJ23_ts__ts 3000ms linear 1 normal forwards}@keyframes eae50cRPzIJ23_ts__ts { 0% {transform: scale(1,1)} 23% {transform: scale(1,1)} 25% {transform: scale(1,0.811878)} 27.333333% {transform: scale(1,1)} 100% {transform: scale(1,1)}} #eae50cRPzIJ24_to {animation: eae50cRPzIJ24_to__to 3000ms linear 1 normal forwards}@keyframes eae50cRPzIJ24_to__to { 0% {transform: translate(223.198006px,80.995899px)} 52% {transform: translate(223.198006px,80.995899px)} 64% {transform: translate(228.933728px,79.114725px)} 82% {transform: translate(228.933728px,79.114725px)} 89.666667% {transform: translate(223.198006px,80.445199px)} 100% {transform: translate(223.198006px,80.445199px)}} #eae50cRPzIJ24_ts {animation: eae50cRPzIJ24_ts__ts 3000ms linear 1 normal forwards}@keyframes eae50cRPzIJ24_ts__ts { 0% {transform: scale(1,1)} 23% {transform: scale(1,1)} 25% {transform: scale(1,0.811878)} 27.333333% {transform: scale(1,1)} 100% {transform: scale(1,1)}} #eae50cRPzIJ25_to {animation: eae50cRPzIJ25_to__to 3000ms linear 1 normal forwards}@keyframes eae50cRPzIJ25_to__to { 0% {transform: translate(203.512668px,111.581944px)} 23% {transform: translate(203.512668px,111.581944px)} 25% {transform: translate(201.487335px,92.886003px)} 27% {transform: translate(203.512668px,111.581944px)} 100% {transform: translate(203.512668px,111.581944px)}} #eae50cRPzIJ25_ts {animation: eae50cRPzIJ25_ts__ts 3000ms linear 1 normal forwards}@keyframes eae50cRPzIJ25_ts__ts { 0% {transform: scale(1,1)} 23% {transform: scale(1,1)} 25% {transform: scale(1,2.044958)} 27.333333% {transform: scale(1.308496,1)} 100% {transform: scale(1.308496,1)}} #eae50cRPzIJ26_to {animation: eae50cRPzIJ26_to__to 3000ms linear 1 normal forwards}@keyframes eae50cRPzIJ26_to__to { 0% {offset-distance: 0%} 23% {offset-distance: 0%} 25% {offset-distance: 49.992826%} 27% {offset-distance: 100%} 100% {offset-distance: 100%}} #eae50cRPzIJ26_ts {animation: eae50cRPzIJ26_ts__ts 3000ms linear 1 normal forwards}@keyframes eae50cRPzIJ26_ts__ts { 0% {transform: scale(0.770136,0.69111)} 23% {transform: scale(0.770136,0.69111)} 25% {transform: scale(0.770136,1.043459)} 27% {transform: scale(0.770136,0.69111)} 100% {transform: scale(0.770136,0.69111)}}
]]></style>
<rect width="388" height="6" rx="0" ry="0" transform="matrix(1 0 0 8.915851-3.681595 123.77142)" fill="#171e24"/><g id="eae50cRPzIJ3_tr" transform="translate(229.5075,95.5) rotate(0)"><path d="M275,83.7669C275,111.861,254.293,134,229.5,134c-24.413,0-44.864-21.465-45.485-48.9447c7.269-9.8182,14.541-16.6793,22.931-21.1614C215.616,59.2619,225.802,57,239,57c6.868,0,12.571.0547,17.353.5721c4.787.5179,8.269,1.467,10.842,3.0097C271.871,63.3861,275,69.118,275,83.7669Z" transform="translate(-229.5075,-95.5)" fill="#ec9d27" stroke="#1c1e26" stroke-width="8"/></g><g id="eae50cRPzIJ4_tr" transform="translate(232.5,94) rotate(0)"><path d="M275,83.5092C275,110.29,255.972,132,232.5,132s-42.5-21.71-42.5-48.4908C203.308,64.3926,217.184,56,240.657,56C264.129,56,275,56.7285,275,83.5092Z" transform="translate(-232.5,-94)" fill="#ec9d27"/></g><path d="M137.035,124.376c-.944,7.247-6.25,12.101-11.458,11.423-5.208-.679-9.094-6.731-8.149-13.978.944-7.247,6.25-12.101,11.458-11.423c5.208.679,9.094,6.731,8.149,13.978Z" fill="#ec9d27" stroke="#000" stroke-width="2"/><path d="M127.6,122.253c-.339,1.017-.65,1.987-.945,2.909-.959,2.996-1.757,5.485-2.83,7.45-.695,1.274-1.475,2.257-2.433,2.967-.95.704-2.131,1.18-3.694,1.358-6.193.705-12.085-4.467-12.928-11.864-.842-7.397,3.735-13.762,9.928-14.467c6.133-.699,11.97,4.365,12.902,11.647Z" fill="#ec9d27" stroke="#000" stroke-width="2"/><path d="M116.532,125.469c.426,3.743-.199,7.2-1.502,9.758-1.308,2.565-3.229,4.118-5.379,4.363-2.15.244-4.371-.836-6.222-3.042-1.801-2.146-3.166-5.273-3.6264-8.901.1645-.387.2814-.75.3254-1.079.051-.379.035-.997-.4838-1.417-.4641-.376-1.0218-.325-1.3104-.274-.3379.059-.6927.19-1.0204.333-.6621.289-1.4384.729-2.1503,1.138-.0675.039-.1345.078-.2008.116-.2772.159-.5437.312-.7954.454c1.1705-1.827,3.6448-5.085,8.1631-10.579c6.84-2.538,13.387,1.977,14.202,9.13Zm-23.1605,2.963c-.0009.001,0-.009.0055-.032-.0019.02-.0046.032-.0055.032Zm-.7314-.788c0,0,.0007,0,.002,0-.0013,0-.002,0-.002,0Z" fill="#ec9d27" stroke="#000" stroke-width="2"/><path d="M313.035,122.376c-.944,7.247-6.25,12.101-11.458,11.423-5.208-.679-9.094-6.731-8.149-13.978.944-7.247,6.25-12.101,11.458-11.423c5.208.679,9.094,6.731,8.149,13.978Z" fill="#ec9d27" stroke="#000" stroke-width="2"/><path d="M303.6,120.253c-.339,1.017-.65,1.987-.945,2.909-.959,2.996-1.757,5.485-2.83,7.45-.695,1.274-1.475,2.257-2.433,2.967-.95.704-2.131,1.18-3.694,1.358-6.193.705-12.085-4.467-12.928-11.864-.842-7.397,3.735-13.762,9.928-14.467c6.133-.699,11.97,4.365,12.902,11.647Z" fill="#ec9d27" stroke="#000" stroke-width="2"/><g id="eae50cRPzIJ10_to" transform="translate(280.652405,126.086999)"><g id="eae50cRPzIJ10_tr" transform="rotate(0)"><g id="eae50cRPzIJ10_ts" transform="scale(1,1)"><path d="M292.532,123.469c.426,3.743-.199,7.2-1.502,9.758-1.308,2.565-3.229,4.118-5.379,4.363-2.15.244-4.371-.836-6.222-3.042-1.801-2.146-3.166-5.273-3.626-8.901.164-.387.281-.75.325-1.079.051-.379.035-.997-.484-1.417-.464-.376-1.022-.325-1.31-.274-.338.059-.693.19-1.021.333-.662.289-1.438.729-2.15,1.138-.067.039-.134.078-.201.116-.277.159-.543.312-.795.454c1.17-1.827,3.645-5.085,8.163-10.579c6.84-2.538,13.387,1.977,14.202,9.13Zm-23.161,2.963c0,.001.001-.009.006-.032-.002.02-.005.032-.006.032Zm-.731-.788c0,0,.001,0,.002,0-.001,0-.002,0-.002,0Z" transform="translate(-280.652405,-125.624874)" fill="#ec9d27" stroke="#000" stroke-width="2"/></g></g></g><path d="M269.627,61.5994c10.214,10.5542,8.172,19.3381,7.43,29.8197-7.831.4775-19.347,2.1539-29.561-8.4002-10.215-10.5541-8.446-21.8129-7.431-29.8196c11.312.4736,19.347-2.154,29.562,8.4001Z" fill="#172025"/><ellipse rx="5" ry="2.5" transform="matrix(.93411 0.356984-.356984 0.93411 261.562985 61.120164)" fill="#1f282f"/><rect width="54.066075" height="74.650483" rx="0" ry="0" transform="matrix(.980282 0 0 0.951099 150.512668 58.784887)" fill="#eb9d26"/><g id="eae50cRPzIJ14_tr" transform="translate(184.75,30) rotate(0)"><path d="M171,0l83.5,4.5L212.184,60L115,51.8919L171,0Z" transform="translate(-184.75,-30)" fill="#172025"/></g><g id="eae50cRPzIJ15_tr" transform="translate(186,28.5) rotate(-0.238232)"><path d="M165.5,4.5h91l-46,48h-95l50-48Z" transform="translate(-186,-28.5)" fill="#1e272c"/></g><g id="eae50cRPzIJ16_to" transform="translate(122,74.625)"><g id="eae50cRPzIJ16_tr" transform="rotate(-0.238232)"><path d="M122,45l6.062,59.25h-12.124L122,45Z" transform="translate(-122,-74.625)" fill="#1e272c"/></g></g><g id="eae50cRPzIJ17_tr" transform="translate(190.478996,49.587902) rotate(-0.238232)"><path d="M137.724,40.8669l89.733-29.9028l15.777,47.3448L223.569,62.96c-17.112,4.0472-33.835,9.591-49.976,16.5675l-20.092,8.6842-15.777-47.3448Z" transform="translate(-190.478996,-49.587902)" fill="#1e272c"/></g><g id="eae50cRPzIJ18_to" transform="translate(154.19215,107.5)"><g id="eae50cRPzIJ18_tr" transform="rotate(0)"><ellipse rx="22.5" ry="48.5" transform="translate(0,0)" fill="#172025"/></g></g><g id="eae50cRPzIJ19_ts" transform="translate(201.48732,92.186264) scale(1,1)"><path d="M212.777,97.7459c-3.423,5.9951-11.252,7.9701-17.487,4.4101-6.235-3.5592-8.515-11.305-5.093-17.3004c5.953-2.3591,10.728-3.6634,17.487-4.4104c6.236,3.5595,8.516,11.3054,5.093,17.3007Z" transform="translate(-201.48732,-92.186264)" fill="#fffffd"/></g><g id="eae50cRPzIJ20_to" transform="translate(198,92)"><g id="eae50cRPzIJ20_ts" transform="scale(1,1)"><circle r="8" transform="translate(0,0)" fill="#121c25"/></g></g><g id="eae50cRPzIJ21_to" transform="translate(194.5,91.5)"><g id="eae50cRPzIJ21_ts" transform="scale(1,1)"><circle r="3.5" transform="translate(0,0)" fill="#d9d9d9"/></g></g><g id="eae50cRPzIJ22_ts" transform="translate(227.987,81.466419) scale(1,1)"><path d="M235.726,85.2774c-2.346,4.1097-7.713,5.4633-11.987,3.0233-4.274-2.4401-5.837-7.7497-3.491-11.8594c4.081-1.6171,7.354-2.5112,11.987-3.0232c4.274,2.44,5.837,7.7496,3.491,11.8593Z" transform="translate(-227.987,-81.466419)" fill="#fffffd"/></g><g id="eae50cRPzIJ23_to" transform="translate(225.597008,81.338703)"><g id="eae50cRPzIJ23_ts" transform="scale(1,1)"><circle r="5.48386" transform="translate(-0.000008,-0.000003)" fill="#121c25"/></g></g><g id="eae50cRPzIJ24_to" transform="translate(223.198006,80.995899)"><g id="eae50cRPzIJ24_ts" transform="scale(1,1)"><circle r="2.39919" transform="translate(-0.000006,0.000001)" fill="#d9d9d9"/></g></g><g id="eae50cRPzIJ25_to" transform="translate(203.512668,111.581944)"><g id="eae50cRPzIJ25_ts" transform="scale(1,1)"><ellipse rx="14.339114" ry="7.655812" transform="translate(0,0)" fill="#ec9d27" stroke-width="0"/></g></g><g id="eae50cRPzIJ26_to" style="offset-path:path('M230.200295,95.5L229.5075,81.466086C229.5075,82.031419,230.200295,88.652656,230.200295,95.5');offset-rotate:0deg"><g id="eae50cRPzIJ26_ts" transform="scale(0.770136,0.69111)"><ellipse rx="14.339114" ry="7.655812" transform="translate(0,0)" fill="#ec9d27" stroke-width="0"/></g></g></svg>
