<svg width="650" height="868" viewBox="0 0 650 868" fill="none" xmlns="http://www.w3.org/2000/svg">
<path d="M126.5 19.5H30.5V141.5H126.5V19.5Z" fill="#D3AD51" stroke="#9C803C"/>
<path d="M618.5 19.5H522.5V141.5H618.5V19.5Z" fill="#987D3B" stroke="#9C803C"/>
<path d="M126.5 21C126.5 22.526 125.339 24.1055 122.921 25.6379C120.527 27.1547 117.031 28.5393 112.665 29.7094C103.942 32.0477 91.8622 33.5 78.5 33.5C65.1378 33.5 53.0584 32.0477 44.3348 29.7094C39.9693 28.5393 36.4726 27.1547 34.079 25.6379C31.6611 24.1055 30.5 22.526 30.5 21C30.5 19.474 31.6611 17.8945 34.079 16.3622C36.4726 14.8453 39.9693 13.4607 44.3348 12.2906C53.0584 9.95227 65.1378 8.5 78.5 8.5C91.8622 8.5 103.942 9.95227 112.665 12.2906C117.031 13.4607 120.527 14.8453 122.921 16.3622C125.339 17.8945 126.5 19.474 126.5 21Z" fill="url(#paint0_linear_110_13)" stroke="#8F7537"/>
<path d="M618.5 21C618.5 22.526 617.339 24.1055 614.921 25.6379C612.527 27.1547 609.031 28.5393 604.665 29.7094C595.942 32.0477 583.862 33.5 570.5 33.5C557.138 33.5 545.058 32.0477 536.335 29.7094C531.969 28.5393 528.473 27.1547 526.079 25.6379C523.661 24.1055 522.5 22.526 522.5 21C522.5 19.474 523.661 17.8945 526.079 16.3622C528.473 14.8453 531.969 13.4607 536.335 12.2906C545.058 9.95227 557.138 8.5 570.5 8.5C583.862 8.5 595.942 9.95227 604.665 12.2906C609.031 13.4607 612.527 14.8453 614.921 16.3622C617.339 17.8945 618.5 19.474 618.5 21Z" fill="url(#paint1_linear_110_13)" stroke="#8F7537"/>
<g filter="url(#filter0_d_110_13)">
<path d="M323.983 54.832L324 54.833L324.017 54.832L399.5 52.268L475.017 46.2839L475.022 46.2834L580.468 38.4143C593.829 37.4172 606.933 31.8332 619 22V743.818C619 756.088 604.098 784.737 597 786.559L474.955 813.917L474.941 813.919L351 824.896C332.952 827.653 315.796 827.749 297.754 824.896L204.143 816.311C186.787 814.719 169.603 811.618 152.786 807.043L55.5 780.576C48.3832 778.786 31 752.698 31 740.399V22.1804C40.7179 32.388 51.8162 38.1442 63.2238 38.8802L177.981 46.2836L177.983 46.2838L251 52.268L323.983 54.832Z" fill="url(#paint2_linear_110_13)"/>
<path d="M323.983 54.832L324 54.833L324.017 54.832L399.5 52.268L475.017 46.2839L475.022 46.2834L580.468 38.4143C593.829 37.4172 606.933 31.8332 619 22V743.818C619 756.088 604.098 784.737 597 786.559L474.955 813.917L474.941 813.919L351 824.896C332.952 827.653 315.796 827.749 297.754 824.896L204.143 816.311C186.787 814.719 169.603 811.618 152.786 807.043L55.5 780.576C48.3832 778.786 31 752.698 31 740.399V22.1804C40.7179 32.388 51.8162 38.1442 63.2238 38.8802L177.981 46.2836L177.983 46.2838L251 52.268L323.983 54.832Z" stroke="#A4873F"/>
</g>
<defs>
<filter id="filter0_d_110_13" x="0.5" y="0.930023" width="649" height="866.57" filterUnits="userSpaceOnUse" color-interpolation-filters="sRGB">
<feFlood flood-opacity="0" result="BackgroundImageFix"/>
<feColorMatrix in="SourceAlpha" type="matrix" values="0 0 0 0 0 0 0 0 0 0 0 0 0 0 0 0 0 0 127 0" result="hardAlpha"/>
<feOffset dy="10"/>
<feGaussianBlur stdDeviation="15"/>
<feComposite in2="hardAlpha" operator="out"/>
<feColorMatrix type="matrix" values="0 0 0 0 0 0 0 0 0 0 0 0 0 0 0 0 0 0 0.7 0"/>
<feBlend mode="normal" in2="BackgroundImageFix" result="effect1_dropShadow_110_13"/>
<feBlend mode="normal" in="SourceGraphic" in2="effect1_dropShadow_110_13" result="shape"/>
</filter>
<linearGradient id="paint0_linear_110_13" x1="30" y1="21" x2="127" y2="21" gradientUnits="userSpaceOnUse">
<stop stop-color="#E6BD59"/>
<stop offset="1" stop-color="#806932"/>
</linearGradient>
<linearGradient id="paint1_linear_110_13" x1="522" y1="21" x2="619" y2="21" gradientUnits="userSpaceOnUse">
<stop stop-color="#E6BD59"/>
<stop offset="1" stop-color="#806932"/>
</linearGradient>
<linearGradient id="paint2_linear_110_13" x1="30.5" y1="412.148" x2="619.504" y2="410.978" gradientUnits="userSpaceOnUse">
<stop stop-color="#C2A04B"/>
<stop offset="0.0510001" stop-color="#EDD58E"/>
<stop offset="0.485" stop-color="#E4B84B"/>
<stop offset="0.956" stop-color="#EACB73"/>
<stop offset="1" stop-color="#FAEAC2"/>
</linearGradient>
</defs>
</svg>
