<svg width="138" height="150" viewBox="0 0 138 150" fill="none" xmlns="http://www.w3.org/2000/svg">
<g filter="url(#filter0_d_19_7)">
<path d="M20.2702 22.8135C18.9774 18.4006 23.825 14.7296 27.7222 17.1701L115.081 71.8759C118.654 74.1133 118.025 79.4966 114.032 80.8492L80.633 92.1632C79.6091 92.5101 78.7251 93.1795 78.1137 94.0711L58.1701 123.153C55.7859 126.629 50.4335 125.776 49.2483 121.731L20.2702 22.8135Z" fill="url(#paint0_linear_19_7)"/>
<path d="M26.3954 19.289L113.754 73.9947C115.541 75.1134 115.226 77.8051 113.23 78.4814L79.8309 89.7954C78.295 90.3157 76.9691 91.3198 76.0519 92.6572L56.1084 121.739C54.9162 123.477 52.2401 123.051 51.6475 121.028L22.6694 22.1107C22.023 19.9042 24.4468 18.0687 26.3954 19.289Z" stroke="white" stroke-opacity="0.65" stroke-width="5"/>
</g>
<defs>
<filter id="filter0_d_19_7" x="0.0569458" y="0.389587" width="137.372" height="148.937" filterUnits="userSpaceOnUse" color-interpolation-filters="sRGB">
<feFlood flood-opacity="0" result="BackgroundImageFix"/>
<feColorMatrix in="SourceAlpha" type="matrix" values="0 0 0 0 0 0 0 0 0 0 0 0 0 0 0 0 0 0 127 0" result="hardAlpha"/>
<feOffset dy="4"/>
<feGaussianBlur stdDeviation="10"/>
<feComposite in2="hardAlpha" operator="out"/>
<feColorMatrix type="matrix" values="0 0 0 0 0 0 0 0 0 0 0 0 0 0 0 0 0 0 0.35 0"/>
<feBlend mode="normal" in2="BackgroundImageFix" result="effect1_dropShadow_19_7"/>
<feBlend mode="normal" in="SourceGraphic" in2="effect1_dropShadow_19_7" result="shape"/>
</filter>
<linearGradient id="paint0_linear_19_7" x1="16.5713" y1="10.1872" x2="88.1113" y2="104.656" gradientUnits="userSpaceOnUse">
<stop stop-color="#FDCF37"/>
<stop offset="1" stop-color="#FEBA3E"/>
</linearGradient>
</defs>
</svg>
