<svg width="138" height="150" viewBox="0 0 138 150" fill="none" xmlns="http://www.w3.org/2000/svg">
<g filter="url(#filter0_d_19_8)">
<path d="M20.5995 22.8135C19.3068 18.4006 24.1543 14.7296 28.0516 17.1701L115.411 71.8759C118.984 74.1133 118.354 79.4966 114.361 80.8492L80.9623 92.1632C79.9384 92.5101 79.0545 93.1795 78.4431 94.0711L58.4995 123.153C56.1152 126.629 50.7628 125.776 49.5776 121.731L20.5995 22.8135Z" fill="url(#paint0_linear_19_8)"/>
<path d="M26.7247 19.289L114.084 73.9947C115.87 75.1134 115.556 77.8051 113.559 78.4814L80.1602 89.7954C78.6243 90.3157 77.2984 91.3198 76.3813 92.6572L56.4377 121.739C55.2456 123.477 52.5694 123.051 51.9768 121.028L22.9987 22.1107C22.3523 19.9042 24.7761 18.0687 26.7247 19.289Z" stroke="#B16D06" stroke-width="5"/>
</g>
<defs>
<filter id="filter0_d_19_8" x="0.38623" y="0.389587" width="137.372" height="148.937" filterUnits="userSpaceOnUse" color-interpolation-filters="sRGB">
<feFlood flood-opacity="0" result="BackgroundImageFix"/>
<feColorMatrix in="SourceAlpha" type="matrix" values="0 0 0 0 0 0 0 0 0 0 0 0 0 0 0 0 0 0 127 0" result="hardAlpha"/>
<feOffset dy="4"/>
<feGaussianBlur stdDeviation="10"/>
<feComposite in2="hardAlpha" operator="out"/>
<feColorMatrix type="matrix" values="0 0 0 0 0 0 0 0 0 0 0 0 0 0 0 0 0 0 0.35 0"/>
<feBlend mode="normal" in2="BackgroundImageFix" result="effect1_dropShadow_19_8"/>
<feBlend mode="normal" in="SourceGraphic" in2="effect1_dropShadow_19_8" result="shape"/>
</filter>
<linearGradient id="paint0_linear_19_8" x1="16.9006" y1="10.1872" x2="88.4407" y2="104.656" gradientUnits="userSpaceOnUse">
<stop stop-color="#FDCF37"/>
<stop offset="1" stop-color="#FEBA3E"/>
</linearGradient>
</defs>
</svg>
