<svg width="649" height="537" viewBox="0 0 649 537" fill="none" xmlns="http://www.w3.org/2000/svg">
<path d="M126.5 18.5H30.5V140.5H126.5V18.5Z" fill="#D3AD51" stroke="#9C803C"/>
<path d="M618.5 18.5H522.5V140.5H618.5V18.5Z" fill="#987D3B" stroke="#9C803C"/>
<path d="M126.5 20C126.5 21.526 125.339 23.1055 122.921 24.6379C120.527 26.1547 117.031 27.5393 112.665 28.7094C103.942 31.0477 91.8622 32.5 78.5 32.5C65.1378 32.5 53.0584 31.0477 44.3348 28.7094C39.9693 27.5393 36.4726 26.1547 34.079 24.6379C31.6611 23.1055 30.5 21.526 30.5 20C30.5 18.474 31.6611 16.8945 34.079 15.3622C36.4726 13.8453 39.9693 12.4607 44.3348 11.2906C53.0584 8.95227 65.1378 7.5 78.5 7.5C91.8622 7.5 103.942 8.95227 112.665 11.2906C117.031 12.4607 120.527 13.8453 122.921 15.3622C125.339 16.8945 126.5 18.474 126.5 20Z" fill="url(#paint0_linear_69_15)" stroke="#8F7537"/>
<path d="M618.5 20C618.5 21.526 617.339 23.1055 614.921 24.6379C612.527 26.1547 609.031 27.5393 604.665 28.7094C595.942 31.0477 583.862 32.5 570.5 32.5C557.138 32.5 545.058 31.0477 536.335 28.7094C531.969 27.5393 528.473 26.1547 526.079 24.6379C523.661 23.1055 522.5 21.526 522.5 20C522.5 18.474 523.661 16.8945 526.079 15.3622C528.473 13.8453 531.969 12.4607 536.335 11.2906C545.058 8.95227 557.138 7.5 570.5 7.5C583.862 7.5 595.942 8.95227 604.665 11.2906C609.031 12.4607 612.527 13.8453 614.921 15.3622C617.339 16.8945 618.5 18.474 618.5 20Z" fill="url(#paint1_linear_69_15)" stroke="#8F7537"/>
<g filter="url(#filter0_d_69_15)">
<path d="M323.483 39.9997L323.5 40.0003L323.517 39.9997L399 38.5L474.517 34.9998L474.522 34.9995L579.968 30.3967C593.329 29.8135 606.433 26.5473 618.5 20.7957V443C618.5 450.177 603.598 466.934 596.5 468L474.455 484.002L474.441 484.003L350.628 495.073C332.58 496.686 314.424 496.659 296.382 494.99L177.56 484.003L55 464.5C47.8832 463.453 30.5 448.194 30.5 441V20.9012C40.2179 26.8718 51.3162 30.2387 62.7238 30.6692L177.481 34.9996L177.483 34.9997L250.5 38.5L323.483 39.9997Z" fill="url(#paint2_linear_69_15)"/>
<path d="M323.483 39.9997L323.5 40.0003L323.517 39.9997L399 38.5L474.517 34.9998L474.522 34.9995L579.968 30.3967C593.329 29.8135 606.433 26.5473 618.5 20.7957V443C618.5 450.177 603.598 466.934 596.5 468L474.455 484.002L474.441 484.003L350.628 495.073C332.58 496.686 314.424 496.659 296.382 494.99L177.56 484.003L55 464.5C47.8832 463.453 30.5 448.194 30.5 441V20.9012C40.2179 26.8718 51.3162 30.2387 62.7238 30.6692L177.481 34.9996L177.483 34.9997L250.5 38.5L323.483 39.9997Z" stroke="#A4873F"/>
</g>
<defs>
<filter id="filter0_d_69_15" x="0" y="0.00350952" width="649" height="536.759" filterUnits="userSpaceOnUse" color-interpolation-filters="sRGB">
<feFlood flood-opacity="0" result="BackgroundImageFix"/>
<feColorMatrix in="SourceAlpha" type="matrix" values="0 0 0 0 0 0 0 0 0 0 0 0 0 0 0 0 0 0 127 0" result="hardAlpha"/>
<feOffset dy="10"/>
<feGaussianBlur stdDeviation="15"/>
<feComposite in2="hardAlpha" operator="out"/>
<feColorMatrix type="matrix" values="0 0 0 0 0 0 0 0 0 0 0 0 0 0 0 0 0 0 0.7 0"/>
<feBlend mode="normal" in2="BackgroundImageFix" result="effect1_dropShadow_69_15"/>
<feBlend mode="normal" in="SourceGraphic" in2="effect1_dropShadow_69_15" result="shape"/>
</filter>
<linearGradient id="paint0_linear_69_15" x1="30" y1="20" x2="127" y2="20" gradientUnits="userSpaceOnUse">
<stop stop-color="#E6BD59"/>
<stop offset="1" stop-color="#806932"/>
</linearGradient>
<linearGradient id="paint1_linear_69_15" x1="522" y1="20" x2="619" y2="20" gradientUnits="userSpaceOnUse">
<stop stop-color="#E6BD59"/>
<stop offset="1" stop-color="#806932"/>
</linearGradient>
<linearGradient id="paint2_linear_69_15" x1="30" y1="249" x2="619" y2="247" gradientUnits="userSpaceOnUse">
<stop stop-color="#C2A04B"/>
<stop offset="0.0510001" stop-color="#EDD58E"/>
<stop offset="0.485" stop-color="#E4B84B"/>
<stop offset="0.956" stop-color="#EACB73"/>
<stop offset="1" stop-color="#FAEAC2"/>
</linearGradient>
</defs>
</svg>
